<svg width="19" height="19" viewBox="0 0 19 19" fill="none" xmlns="http://www.w3.org/2000/svg">
<path d="M12.5051 2.93254C12.5881 3.01528 12.654 3.1136 12.699 3.22185C12.7439 3.33011 12.7671 3.44618 12.7671 3.5634C12.7671 3.68062 12.7439 3.79668 12.699 3.90494C12.654 4.01319 12.5881 4.11151 12.5051 4.19426L7.19922 9.50015L12.5051 14.8075C12.6724 14.9749 12.7664 15.2018 12.7664 15.4384C12.7664 15.675 12.6724 15.9019 12.5051 16.0693C12.3378 16.2366 12.1109 16.3306 11.8743 16.3306C11.6376 16.3306 11.4107 16.2366 11.2434 16.0693L5.3059 10.1318C5.22287 10.049 5.15699 9.9507 5.11204 9.84244C5.06708 9.73418 5.04395 9.61812 5.04395 9.5009C5.04395 9.38368 5.06708 9.26761 5.11204 9.15935C5.15699 9.0511 5.22287 8.95278 5.3059 8.87004L11.2434 2.93254C11.3261 2.84951 11.4245 2.78363 11.5327 2.73868C11.641 2.69372 11.757 2.67058 11.8743 2.67058C11.9915 2.67058 12.1075 2.69372 12.2158 2.73868C12.3241 2.78363 12.4224 2.84951 12.5051 2.93254Z" fill="black"/>
</svg>
