<svg width="61" height="61" viewBox="0 0 61 61" fill="none" xmlns="http://www.w3.org/2000/svg">
<rect width="60.0999" height="60.0999" rx="11.2687" fill="#0A8C00" fill-opacity="0.1"/>
<path d="M27.6867 36.4368L36.4367 30.8118L27.6867 25.1868V36.4368ZM30.8117 43.3118C29.0826 43.3118 27.4576 42.9836 25.9367 42.3274C24.4159 41.6711 23.093 40.7805 21.968 39.6555C20.843 38.5305 19.9524 37.2076 19.2961 35.6868C18.6399 34.1659 18.3117 32.5409 18.3117 30.8118C18.3117 29.0826 18.6399 27.4576 19.2961 25.9368C19.9524 24.4159 20.843 23.093 21.968 21.968C23.093 20.843 24.4159 19.9524 25.9367 19.2961C27.4576 18.6399 29.0826 18.3118 30.8117 18.3118C32.5409 18.3118 34.1659 18.6399 35.6867 19.2961C37.2076 19.9524 38.5305 20.843 39.6555 21.968C40.7805 23.093 41.6711 24.4159 42.3274 25.9368C42.9836 27.4576 43.3117 29.0826 43.3117 30.8118C43.3117 32.5409 42.9836 34.1659 42.3274 35.6868C41.6711 37.2076 40.7805 38.5305 39.6555 39.6555C38.5305 40.7805 37.2076 41.6711 35.6867 42.3274C34.1659 42.9836 32.5409 43.3118 30.8117 43.3118ZM30.8117 40.8118C33.6034 40.8118 35.968 39.843 37.9055 37.9055C39.843 35.968 40.8117 33.6034 40.8117 30.8118C40.8117 28.0201 39.843 25.6555 37.9055 23.718C35.968 21.7805 33.6034 20.8118 30.8117 20.8118C28.0201 20.8118 25.6555 21.7805 23.718 23.718C21.7805 25.6555 20.8117 28.0201 20.8117 30.8118C20.8117 33.6034 21.7805 35.968 23.718 37.9055C25.6555 39.843 28.0201 40.8118 30.8117 40.8118Z" fill="#0A8C00"/>
</svg>
