<svg width="61" height="61" viewBox="0 0 61 61" fill="none" xmlns="http://www.w3.org/2000/svg">
<rect width="60.0999" height="60.0999" rx="11.2687" fill="#0A8C00" fill-opacity="0.1"/>
<path d="M25.6594 38.3118H35.6594V35.8118H25.6594V38.3118ZM25.6594 33.3118H35.6594V30.8118H25.6594V33.3118ZM23.1594 43.3118C22.4719 43.3118 21.8834 43.067 21.3938 42.5774C20.9042 42.0878 20.6594 41.4993 20.6594 40.8118V20.8118C20.6594 20.1243 20.9042 19.5357 21.3938 19.0461C21.8834 18.5566 22.4719 18.3118 23.1594 18.3118H33.1594L40.6594 25.8118V40.8118C40.6594 41.4993 40.4146 42.0878 39.9251 42.5774C39.4355 43.067 38.8469 43.3118 38.1594 43.3118H23.1594ZM31.9094 27.0618V20.8118H23.1594V40.8118H38.1594V27.0618H31.9094ZM23.1594 20.8118V27.0618V20.8118V27.0618V40.8118V20.8118Z" fill="#0A8C00"/>
</svg>
